<svg width="175" height="21" viewBox="0 0 175 21" fill="none" xmlns="http://www.w3.org/2000/svg">
<g clip-path="url(#clip0_169_291)">
<path d="M147.948 10.7952C147.948 5.71963 152.125 1.60425 157.274 1.60425C162.422 1.60425 166.597 5.71963 166.597 10.7952C166.597 15.8707 162.423 19.983 157.274 19.983C152.124 19.983 147.948 15.869 147.948 10.7952Z" fill="#FDB913"/>
<path d="M35.639 5.11999C35.4163 4.74492 35.1265 4.43907 34.7736 4.21191C34.414 3.98224 34.0125 3.81408 33.5593 3.70281C33.1051 3.60273 32.638 3.54681 32.1545 3.54681H27.8154V9.49069C28.3371 9.64554 28.8514 9.74948 29.3658 9.81042C29.8758 9.86557 30.381 9.89392 30.8831 9.89392C31.4447 9.89392 32.0247 9.84628 32.6311 9.74948C33.2374 9.65345 33.7882 9.47584 34.2813 9.21531C34.7735 8.95595 35.1777 8.61231 35.4973 8.17591C35.8133 7.74202 35.9734 7.18491 35.9734 6.49108C35.9734 5.95286 35.8622 5.49429 35.6388 5.11979M38.5174 9.53215C38.0368 10.3702 37.4044 11.0556 36.6221 11.5944C35.8413 12.1318 34.9468 12.5269 33.9305 12.7751C32.9207 13.0258 31.8942 13.1533 30.8532 13.1533C30.3528 13.1533 29.8486 13.13 29.3505 13.081C28.8467 13.0316 28.3369 12.9523 27.8152 12.8368V20.6522H24.5499V3.54681H22.0049V0.288208H32.1543C33.0992 0.288208 33.9952 0.423581 34.8455 0.695099C35.6918 0.961988 36.4428 1.35982 37.0993 1.8745C37.7572 2.39305 38.2752 3.0435 38.6607 3.81967C39.0463 4.60299 39.2389 5.49062 39.2389 6.49108C39.2389 7.68205 38.9966 8.69812 38.517 9.53215" fill="#231F20"/>
<path d="M64.9397 7.64054C64.5608 6.76524 64.0442 6.0041 63.3764 5.36118C62.7158 4.71343 61.9369 4.20279 61.0507 3.81885C60.1627 3.44243 59.2203 3.25325 58.2151 3.25325C57.2099 3.25325 56.2653 3.44223 55.3824 3.81885C54.493 4.20279 53.7226 4.71343 53.0673 5.36118C52.4128 6.0041 51.8911 6.76524 51.5056 7.64054C51.1201 8.51429 50.9279 9.44532 50.9279 10.4348C50.9279 11.4242 51.1201 12.3547 51.5056 13.2273C51.8911 14.0976 52.4128 14.8614 53.0673 15.508C53.7224 16.1513 54.493 16.6631 55.3824 17.0453C56.2651 17.4262 57.2132 17.6142 58.2151 17.6142C59.217 17.6142 60.1629 17.4262 61.0507 17.0453C61.9369 16.6631 62.704 16.1513 63.3617 15.508C64.0162 14.8612 64.537 14.0976 64.9234 13.2273C65.3107 12.3547 65.502 11.4217 65.502 10.4348C65.502 9.44782 65.3146 8.51429 64.9399 7.64054M67.9625 14.4946C67.4013 15.7593 66.646 16.8573 65.6915 17.8016C64.7383 18.7415 63.619 19.4847 62.3397 20.0235C61.0546 20.5631 59.679 20.8363 58.2151 20.8363C56.7512 20.8363 55.4045 20.5631 54.1232 20.0235C52.8423 19.4847 51.7234 18.7415 50.7696 17.8016C49.8133 16.8573 49.0562 15.7593 48.4954 14.4946C47.9411 13.2317 47.6597 11.8784 47.6597 10.4348C47.6597 8.99118 47.9411 7.63591 48.4954 6.37262C49.0562 5.10856 49.8133 4.00725 50.7696 3.06465C51.7234 2.12437 52.8423 1.37885 54.1232 0.827525C55.4045 0.277161 56.7694 0.000244141 58.2151 0.000244141C59.6608 0.000244141 61.0546 0.277354 62.3397 0.827525C63.6192 1.37885 64.7385 2.12437 65.6915 3.06465C66.646 4.00725 67.4013 5.10856 67.9625 6.37262C68.5198 7.63591 68.801 8.98925 68.801 10.4348C68.801 11.8803 68.5198 13.2317 67.9625 14.4946Z" fill="#231F20"/>
<path d="M79.8488 21V3.85913H77.3633V0.587036H83.1173V17.7283H91.1866V21H79.8488Z" fill="#231F20"/>
<path d="M102.483 21V3.82981H100.026V0.559448H113.677V3.82981H105.752V9.01352H113.677V12.2831H105.752V17.7283H113.677V21H102.483Z" fill="#231F20"/>
<path d="M132.085 3.82958V21H128.813V3.82958H122.65V0.558838H138.126V3.82958H132.085Z" fill="#231F20"/>
<path d="M13.1742 12.2204C12.856 11.479 12.4154 10.836 11.8587 10.2847C11.2984 9.73378 10.6433 9.29777 9.89206 8.98479C9.13869 8.67702 8.33973 8.51735 7.49164 8.51735H6.53711C6.13205 8.51735 5.73873 8.47338 5.3505 8.38545C4.96306 8.30233 4.61494 8.16387 4.30987 7.97219C4.00207 7.78591 3.75081 7.53888 3.55924 7.23285C3.3618 6.93105 3.26924 6.55714 3.26924 6.12132C3.26924 5.53142 3.37765 5.0609 3.60112 4.69701C3.82145 4.33679 4.12378 4.06045 4.49557 3.86761C4.87441 3.67863 5.3053 3.55212 5.78472 3.48579C6.26727 3.42041 6.75843 3.38744 7.25741 3.38744C7.3261 3.38744 7.39478 3.38397 7.46327 3.38204H12.2443V0.212533H7.66541C7.48617 0.210219 7.31181 0.20752 7.15292 0.20752C7.0723 0.20752 6.99814 0.212341 6.91986 0.212533H6.80011V0.215619C5.97199 0.231817 5.23642 0.303553 4.46935 0.493307C3.58996 0.712565 2.82015 1.0589 2.15425 1.53618C1.48952 2.01076 0.963337 2.62052 0.578237 3.3695C0.192159 4.12119 0 5.03988 0 6.12132C0 7.03191 0.180222 7.83778 0.533426 8.52892C0.892696 9.22391 1.37701 9.81014 1.9801 10.2847C2.58964 10.7576 3.28235 11.1187 4.06214 11.3675C4.84271 11.6151 5.66849 11.7376 6.53711 11.7376H7.49164C8.29922 11.7376 8.98802 12.0139 9.54316 12.5643C10.1036 13.1177 10.383 13.7884 10.383 14.5862C10.383 15.384 10.1036 16.0589 9.54316 16.6085C8.98821 17.1633 8.29942 17.4385 7.49164 17.4385H1.41751V20.6558H7.49145C8.33953 20.6558 9.1385 20.5023 9.89187 20.1891C10.6431 19.8706 11.2984 19.4386 11.8585 18.8923C12.4152 18.3406 12.8558 17.6928 13.174 16.9512C13.4891 16.2101 13.648 15.421 13.648 14.5862C13.648 13.7514 13.4891 12.9636 13.174 12.2206" fill="#231F20"/>
<path d="M163.568 13.1815C163.182 14.0518 162.668 14.8091 162.011 15.4509C161.359 16.0938 160.592 16.6052 159.709 16.9801C158.831 17.3615 157.888 17.5517 156.888 17.5517C155.888 17.5517 154.952 17.3615 154.065 16.9801C153.183 16.6054 152.416 16.094 151.763 15.4509C151.108 14.8093 150.591 14.052 150.206 13.1815C149.823 12.3126 149.635 11.3826 149.635 10.4029C149.635 9.42331 149.823 8.49363 150.206 7.62161C150.59 6.74959 151.108 5.99404 151.763 5.35343C152.416 4.708 153.183 4.19794 154.065 3.81843C154.953 3.4424 155.888 3.25284 156.888 3.25284C157.888 3.25284 158.831 3.4422 159.709 3.81843C160.592 4.19794 161.364 4.708 162.025 5.35343C162.687 5.99404 163.207 6.74959 163.583 7.62161C163.72 7.94635 163.826 8.27919 163.911 8.61878H159.85V12.1815H163.907C163.817 12.5218 163.711 12.8566 163.568 13.1817M175 8.61897H167.26C167.125 7.83759 166.908 7.08031 166.589 6.35812C166.031 5.10023 165.279 4.00568 164.33 3.06867C163.381 2.12839 162.266 1.38789 160.99 0.839066C159.71 0.29121 158.344 0.0189209 156.888 0.0189209C155.431 0.0189209 154.09 0.29121 152.816 0.839066C151.539 1.38808 150.425 2.12839 149.476 3.06867C148.527 4.00568 147.771 5.10004 147.214 6.35812C146.659 7.61679 146.382 8.96975 146.382 10.4031C146.382 11.8365 146.659 13.1866 147.214 14.4423C147.771 15.7025 148.527 16.7965 149.476 17.7351C150.425 18.6717 151.539 19.4083 152.816 19.9489C154.09 20.4894 155.449 20.7536 156.888 20.7536C158.327 20.7536 159.71 20.4894 160.99 19.9489C162.266 19.4083 163.381 18.6717 164.33 17.7351C165.279 16.7965 166.031 15.7025 166.589 14.4423C166.908 13.7205 167.125 12.9636 167.261 12.1815H175V8.61878V8.61897Z" fill="#231F20"/>
</g>
<defs>
<clipPath id="clip0_169_291">
<rect width="175" height="21" fill="white"/>
</clipPath>
</defs>
</svg>
